PathFileType	4	(X/Y/Z)	C:\Users\Biomechanik\SynologyDrive\AlexP\Athlete_03\Athlete_3_25_03_31\Static_01\marker_experimental.trc
DataRate	CameraRate	NumFrames	NumMarkers	Units	OrigDataRate	OrigDataStartFrame	OrigNumFrames
200.000000	200.000000	4	74	mm	200.000000	279	372
Frame#	Time	BL			BR			GLAB			RFHD			LFHD			C7			T6			SPINMOL			SPINM2			SPINM3			T12			BELTOL			BELT2			BELT3			SACROL			SACR2			SACR3			LASI			RASI			LPSI			RPSI			LTHOL			LTH2			LTH3			LKNEL			LKNEM			LFIB			LSHAOL			LSHA2			LSHA3			LMALL			LMALM			LHEE			LTOE			LM5			RTHOL			RTH2			RTH3			RKNEL			RKNEM			RFIB			RSHAOL			RSHA2			RSHA3			RMALL			RMALM			RHEE			RTOE			RM5			STRN			XIPH			LACR			LUAOL			LUA2			LUA3			LCUBL			LCUBM			LLAOL			LLA2			LLA3			LWRR			LWRU			RACR			RUAOL			RUA2			RUA3			RCUBL			RCUBM			RLAOL			RLA2			RLA3			RWRR			RWRU			*73			
		X1	Y1	Z1	X2	Y2	Z2	X3	Y3	Z3	X4	Y4	Z4	X5	Y5	Z5	X6	Y6	Z6	X7	Y7	Z7	X8	Y8	Z8	X9	Y9	Z9	X10	Y10	Z10	X11	Y11	Z11	X12	Y12	Z12	X13	Y13	Z13	X14	Y14	Z14	X15	Y15	Z15	X16	Y16	Z16	X17	Y17	Z17	X18	Y18	Z18	X19	Y19	Z19	X20	Y20	Z20	X21	Y21	Z21	X22	Y22	Z22	X23	Y23	Z23	X24	Y24	Z24	X25	Y25	Z25	X26	Y26	Z26	X27	Y27	Z27	X28	Y28	Z28	X29	Y29	Z29	X30	Y30	Z30	X31	Y31	Z31	X32	Y32	Z32	X33	Y33	Z33	X34	Y34	Z34	X35	Y35	Z35	X36	Y36	Z36	X37	Y37	Z37	X38	Y38	Z38	X39	Y39	Z39	X40	Y40	Z40	X41	Y41	Z41	X42	Y42	Z42	X43	Y43	Z43	X44	Y44	Z44	X45	Y45	Z45	X46	Y46	Z46	X47	Y47	Z47	X48	Y48	Z48	X49	Y49	Z49	X50	Y50	Z50	X51	Y51	Z51	X52	Y52	Z52	X53	Y53	Z53	X54	Y54	Z54	X55	Y55	Z55	X56	Y56	Z56	X57	Y57	Z57	X58	Y58	Z58	X59	Y59	Z59	X60	Y60	Z60	X61	Y61	Z61	X62	Y62	Z62	X63	Y63	Z63	X64	Y64	Z64	X65	Y65	Z65	X66	Y66	Z66	X67	Y67	Z67	X68	Y68	Z68	X69	Y69	Z69	X70	Y70	Z70	X71	Y71	Z71	X72	Y72	Z72	X73	Y73	Z73	X74	Y74	Z74	

280	1.395	960.7591552734375	36.20349121093762	-1933.51513671875	1063.147094726562	32.92774963378906	86.64432525634766	372.628662109375	1600.358764648438	-1181.739135742188	322.0332336425781	1627.7099609375	-1119.732421875	333.1392822265625	1628.545288085938	-1255.543334960938	145.1344604492188	1439.058837890625	-1202.336547851562	nan	nan	nan	102.926025390625	1230.13232421875	-1234.963256835938	96.94202423095703	1220.917236328125	-1185.595947265625	109.912727355957	1165.735107421875	-1220.297241210938	125.7528762817383	1102.464599609375	-1217.582885742188	97.69641876220703	1081.746826171875	-1232.009765625	97.299560546875	1078.224975585938	-1181.806518554688	90.31987762451172	1018.824951171875	-1212.038330078125	105.6930541992188	959.8877563476564	-1236.84375	106.5187683105469	957.8209838867189	-1185.41162109375	87.29751586914062	900.6340942382814	-1212.899169921875	335.8309020996094	934.5116577148439	-1329.6630859375	328.5284729003906	925.1963500976564	-1082.199584960938	118.5975341796875	977.2854003906251	-1255.633178710938	119.2707977294922	968.1890258789064	-1171.146362304688	193.1442260742188	683.8336181640626	-1398.766967773438	143.2312469482422	630.8596191406251	-1366.351928710938	189.3948364257812	623.9956054687501	-1385.282958984375	236.4805755615234	487.7267456054688	-1382.185546875	255.1077880859375	462.1206054687501	-1262.592651367188	193.5600433349609	426.0637512207032	-1387.014526367188	159.5080718994141	329.0932922363282	-1402.841186523438	110.4364852905273	267.4870605468751	-1389.787109375	159.1786651611328	267.2571105957032	-1401.404052734375	142.7870788574219	81.49363708496102	-1381.414184570312	183.669921875	89.71293640136727	-1295.640869140625	95.0433349609375	67.59519958496102	-1318.254028320312	309.9082336425781	47.71640777587899	-1348.687133789062	253.0017852783203	31.22743797302255	-1443.6474609375	162.2632446289062	696.5737915039064	-1023.622741699219	212.4828643798828	637.5607910156251	-1004.227661132812	169.0703125	635.2651367187501	-1028.940307617188	201.8945770263672	496.1141357421876	-1025.617553710938	239.5758209228516	463.5826416015626	-1146.938598632812	154.7899017333984	432.5935058593751	-1028.869995117188	120.2244567871094	347.0944824218751	-1018.586364746094	149.5147399902344	275.5908813476563	-1003.349487304688	108.1840057373047	286.5418395996094	-1028.777954101562	124.965934753418	85.09105682373053	-1041.824462890625	189.0952301025391	95.61764526367195	-1114.603515625	90.57296752929688	63.80184173583991	-1115.083374023438	292.6976013183594	47.61390686035163	-1043.72607421875	216.4096832275391	39.43108749389654	-964.1553344726562	326.30517578125	1364.866943359375	-1198.376220703125	358.0412292480469	1219.631225585938	-1200.682495117188	204.6907653808594	1435.706787109375	-1348.5693359375	171.2209625244141	1410.362670898438	-1487.391845703125	160.3039245605469	1385.289428710938	-1547.776977539062	203.7826080322266	1413.433471679688	-1544.492431640625	184.947265625	1401.28076171875	-1652.013549804688	258.5767211914062	1311.346069335938	-1650.446166992188	182.9925994873047	1375.591918945312	-1742.619140625	176.2507629394531	1316.166625976562	-1795.351196289062	187.8363189697266	1364.686645507812	-1803.569946289062	200.5400238037109	1355.468505859375	-1908.68798828125	279.8944091796875	1353.109375	-1901.709716796875	205.1052093505859	1429.4228515625	-1058.291137695312	161.7288970947266	1410.978149414062	-936.4228515624999	179.0935211181641	1408.28076171875	-872.6251220703124	132.6558380126953	1387.990966796875	-882.8030395507811	154.6511077880859	1390.657592773438	-768.2041625976561	212.6142272949219	1296.175170898438	-768.0750732421874	143.1415405273438	1370.734008789062	-669.3220214843749	158.1915588378906	1413.223266601562	-603.4203491210936	142.2581176757812	1365.28955078125	-607.0133056640624	153.2773132324219	1377.42822265625	-514.5199584960936	231.8873748779297	1353.907836914062	-502.0409240722656	105.0617980957031	1266.903930664062	-1212.865600585938	
281	1.4	960.7561645507812	36.21112060546887	-1933.50830078125	1063.149047851562	32.92525100708007	86.66103363037109	372.6695556640625	1600.348876953125	-1181.717651367188	322.0457458496094	1627.673095703125	-1119.788818359375	333.1553344726562	1628.529541015625	-1255.546752929688	145.1288604736328	1439.0576171875	-1202.323486328125	nan	nan	nan	102.9165725708008	1230.125732421875	-1234.964477539062	96.94533538818359	1220.910522460938	-1185.6064453125	109.9224166870117	1165.714233398438	-1220.301635742188	125.7302856445312	1102.462890625	-1217.58349609375	97.72179412841797	1081.737060546875	-1232.016723632812	97.30943298339844	1078.187744140625	-1181.8134765625	90.522705078125	1018.895812988281	-1212.0615234375	105.6968841552734	959.8846435546876	-1236.8681640625	106.5307540893555	957.8082885742189	-1185.41357421875	87.31187438964844	900.6313476562501	-1212.909057617188	335.8386535644531	934.5125122070314	-1329.658935546875	328.5352172851562	925.2012939453126	-1082.188354492188	118.5953674316406	977.2851562500001	-1255.653442382812	119.2861099243164	968.1781616210939	-1171.165771484375	193.1806182861328	683.8125000000001	-1398.7978515625	143.244384765625	630.8618164062501	-1366.35791015625	189.4208526611328	624.0045776367189	-1385.288330078125	236.4933013916016	487.7197570800782	-1382.194580078125	255.0319366455078	462.0767822265626	-1262.671020507812	193.5673522949219	426.0608825683594	-1387.024291992188	159.5194396972656	329.0855712890626	-1402.862670898438	110.4436645507812	267.4891357421876	-1389.797607421875	159.1891632080078	267.251434326172	-1401.40576171875	142.8032379150391	81.50009155273446	-1381.430297851562	183.6644439697266	89.70980072021493	-1295.652221679688	95.04357147216797	67.59488677978524	-1318.259155273438	309.9076843261719	47.71181488037118	-1348.6806640625	253.0207366943359	31.20580291748056	-1443.632446289062	162.2960662841797	696.5661621093751	-1023.636779785156	212.5015258789062	637.5599975585939	-1004.22509765625	169.069091796875	635.2568359375001	-1028.94384765625	201.8974456787109	496.1092224121094	-1025.626586914062	239.5868377685547	463.5735778808594	-1146.94091796875	154.7959136962891	432.5922241210938	-1028.88232421875	120.2283325195312	347.0954895019532	-1018.590454101562	149.5240783691406	275.5983581542969	-1003.344665527344	108.2007141113281	286.5534362792969	-1028.771606445312	124.9663925170898	85.09429168701178	-1041.839721679688	189.0730438232422	95.62635803222663	-1114.590942382812	90.59644317626953	63.77400970458991	-1115.073486328125	292.7059936523438	47.62401580810553	-1043.726196289062	216.4077301025391	39.39592742919928	-964.1773071289062	326.2825927734375	1364.868041992188	-1198.366577148438	358.0281372070312	1219.611328125	-1200.702026367188	204.6797790527344	1435.70458984375	-1348.556640625	171.2192687988281	1410.349731445312	-1487.39111328125	160.2258453369141	1385.413818359375	-1547.807861328125	203.7736358642578	1413.450561523438	-1544.475830078125	184.9205780029297	1401.287963867188	-1652.00390625	258.5831298828125	1311.362915039062	-1650.452392578125	182.8900451660156	1375.593383789062	-1742.650512695312	176.2039642333984	1316.142578125	-1795.348510742188	187.8264770507812	1364.686645507812	-1803.548950195312	200.4430084228516	1355.446899414063	-1908.722290039062	279.8706970214844	1353.111572265625	-1901.735595703125	205.0901336669922	1429.433715820312	-1058.279663085938	161.7151794433594	1410.94970703125	-936.4265136718749	179.0672912597656	1408.397705078125	-872.6828002929686	132.6693115234375	1387.943725585938	-882.8163452148436	154.6683044433594	1390.6298828125	-768.1896972656249	212.635986328125	1296.130615234375	-768.0670776367186	143.1521911621094	1370.69775390625	-669.3224487304686	158.2244415283203	1413.18310546875	-603.4119262695311	142.2717742919922	1365.234741210938	-607.0361938476561	153.3438415527344	1377.367431640625	-514.5558471679686	231.9192352294922	1353.825073242188	-502.0474548339843	105.0640563964844	1266.897338867188	-1212.862670898438	
282	1.405	960.7542114257812	36.21892929077161	-1933.53271484375	1063.155395507812	32.92272567749023	86.64229583740234	372.6844177246094	1600.28759765625	-1181.696411132812	322.0468444824219	1627.664306640625	-1119.775146484375	333.1608581542969	1628.50927734375	-1255.529907226562	145.1161193847656	1439.044555664062	-1202.31591796875	nan	nan	nan	102.9314575195312	1230.10546875	-1234.95947265625	96.9215087890625	1220.8896484375	-1185.606079101562	109.9405975341797	1165.701904296875	-1220.296752929688	125.7466506958008	1102.44580078125	-1217.591918945312	97.68080139160156	1081.713500976562	-1232.036499023438	97.31253051757812	1078.193725585938	-1181.810668945312	90.37001800537109	1018.770812988281	-1212.001831054688	105.7303771972656	959.8967285156251	-1236.856201171875	106.5580215454102	957.7857055664064	-1185.4453125	87.32146453857422	900.6155395507814	-1212.914184570312	335.8532409667969	934.5293579101564	-1329.679809570312	328.5458068847656	925.1854858398439	-1082.202514648438	118.6349639892578	977.2639160156251	-1255.6484375	119.3017578125	968.1698608398439	-1171.1748046875	193.1856231689453	683.8439941406251	-1398.807861328125	143.2851409912109	630.8621826171876	-1366.362548828125	189.4359130859375	623.9926147460939	-1385.322143554688	236.5026550292969	487.7438049316407	-1382.2158203125	254.970458984375	462.0369567871094	-1262.76025390625	193.577880859375	426.0579223632813	-1387.033569335938	159.5281372070312	329.082244873047	-1402.863403320312	110.4442901611328	267.5035095214844	-1389.796020507812	159.1901550292969	267.2574768066407	-1401.4091796875	142.8014526367188	81.50211334228524	-1381.417724609375	183.6687469482422	89.71683502197274	-1295.64501953125	95.04676818847656	67.59120178222665	-1318.260009765625	309.9139404296875	47.71514511108407	-1348.673217773438	253.0473937988281	31.15172767639169	-1443.610595703125	162.2866973876953	696.5806274414064	-1023.636352539062	212.5055084228516	637.5551757812501	-1004.237548828125	169.0906982421875	635.2567749023439	-1028.951416015625	201.9028015136719	496.1097412109376	-1025.639404296875	239.6514587402344	463.9696655273438	-1147.212158203125	154.8045043945312	432.5898437500001	-1028.883178710938	120.2363357543945	347.0921020507813	-1018.6015625	149.5287780761719	275.5892944335938	-1003.35595703125	108.199836730957	286.5529174804688	-1028.780151367188	124.9681396484375	85.09700012207037	-1041.85498046875	189.0741729736328	95.64726257324226	-1114.611572265625	90.67762756347656	63.68321990966804	-1115.076049804688	292.7006530761719	47.60594940185553	-1043.721435546875	216.4151611328125	39.43159866333013	-964.1517333984375	326.2775268554688	1364.850463867188	-1198.374267578125	358.0200500488281	1219.589111328125	-1200.701416015625	204.650634765625	1435.701049804688	-1348.558715820312	171.1923217773438	1410.33154296875	-1487.390258789062	160.1565246582031	1385.202880859375	-1547.76025390625	203.7620391845703	1413.448852539062	-1544.465698242188	184.8947448730469	1401.283325195312	-1652.005981445312	258.5997619628906	1311.361572265625	-1650.445922851562	182.9552917480469	1375.59814453125	-1742.588745117188	176.2527160644531	1316.156127929688	-1795.301025390625	187.7866516113281	1364.694213867188	-1803.56103515625	200.4097595214844	1355.445434570313	-1908.714477539062	279.8346557617188	1353.122192382813	-1901.704833984375	205.0830535888672	1429.431274414062	-1058.264770507812	161.7020568847656	1410.9189453125	-936.4254760742186	179.0584411621094	1408.358642578125	-872.6820068359374	132.6839294433594	1387.890625	-882.8348388671874	154.6709899902344	1390.60302734375	-768.1937255859374	212.6815338134766	1296.107421875	-768.0362548828124	143.1687164306641	1370.665283203125	-669.3223266601561	158.2785034179688	1413.130859375	-603.4041748046874	142.2966918945312	1365.195922851562	-607.0448608398436	153.6100921630859	1377.1162109375	-514.6632690429686	231.9512329101562	1353.741943359375	-502.0473632812499	105.0765533447266	1266.882690429688	-1212.85888671875	
283	1.41	960.750244140625	36.22867965698254	-1933.523559570312	1063.14892578125	32.9310188293457	86.64508056640625	372.4118041992188	1600.426147460938	-1182.03076171875	322.072509765625	1627.646362304688	-1119.746948242188	333.1821594238281	1628.49609375	-1255.532836914062	145.1046752929688	1439.0400390625	-1202.302612304688	nan	nan	nan	102.9153823852539	1230.1005859375	-1234.948364257812	96.92951965332031	1220.883911132812	-1185.606201171875	109.9541015625	1165.69482421875	-1220.290161132812	125.7367782592773	1102.431518554688	-1217.6015625	97.65714263916016	1081.669189453125	-1232.062255859375	97.32048797607422	1078.1728515625	-1181.826171875	90.36520385742188	1018.767700195313	-1212.005249023438	105.7727279663086	959.8837890625001	-1236.867309570312	106.5407333374023	957.7886962890626	-1185.447631835938	87.34365844726562	900.6083374023439	-1212.9306640625	335.8546142578125	934.5291748046876	-1329.694580078125	328.5523681640625	925.1982421875001	-1082.211547851562	118.6477432250977	977.2657470703126	-1255.6572265625	119.3087921142578	968.1623535156251	-1171.189697265625	193.2165069580078	683.8651123046876	-1398.845336914062	143.2902679443359	630.8696899414064	-1366.4052734375	189.4436645507812	623.9839477539064	-1385.325561523438	236.5255126953125	487.7366638183594	-1382.236328125	254.9095001220703	462.0085754394532	-1262.83642578125	193.5913543701172	426.0604248046876	-1387.041259765625	159.5423126220703	329.0836486816407	-1402.875610351562	110.4477233886719	267.5057983398438	-1389.80615234375	159.1993560791016	267.2573852539064	-1401.40576171875	142.8038177490234	81.5055694580079	-1381.423828125	183.6724090576172	89.71382904052743	-1295.640625	95.05089569091797	67.59348297119149	-1318.253540039062	309.9146728515625	47.73305511474618	-1348.683837890625	252.987060546875	31.24485206604013	-1443.639404296875	162.306640625	696.5725097656251	-1023.647583007812	212.5299835205078	637.5556640625001	-1004.2490234375	169.1207733154297	635.2600708007814	-1028.95458984375	201.9312438964844	496.1221618652344	-1025.644409179688	239.6588745117188	463.9834899902344	-1147.208618164062	154.8228149414062	432.5881347656251	-1028.89892578125	120.2475051879883	347.0965576171876	-1018.608825683594	149.5415496826172	275.5936889648438	-1003.363891601562	108.2054138183594	286.5508728027344	-1028.793212890625	124.976936340332	85.09757232666021	-1041.834838867188	189.1006774902344	95.55182647705085	-1114.590087890625	90.59129333496094	63.78866577148445	-1115.07666015625	292.6986999511719	47.60294342041022	-1043.71923828125	216.4105072021484	39.38930892944342	-964.180908203125	326.2776489257812	1364.8310546875	-1198.362548828125	358.0111083984375	1219.5986328125	-1200.716796875	204.6464691162109	1435.701904296875	-1348.551025390625	171.1851501464844	1410.350463867188	-1487.365478515625	160.2034301757812	1385.293334960938	-1547.772094726562	203.7535400390625	1413.449096679688	-1544.440551757812	184.9035339355469	1401.278442382812	-1652.008178710938	258.5867004394531	1311.365844726562	-1650.437133789062	182.9341430664062	1375.589965820312	-1742.584838867188	176.246826171875	1316.150756835938	-1795.306640625	187.7862091064453	1364.692993164062	-1803.544677734375	200.4228515625	1355.453002929688	-1908.6923828125	279.8140563964844	1353.128662109375	-1901.688720703125	205.0734558105469	1429.413818359375	-1058.26953125	161.7002563476562	1410.883544921875	-936.4069824218749	179.0365753173828	1408.330932617188	-872.6861572265624	132.6897277832031	1387.836791992188	-882.8524780273436	154.6928863525391	1390.5751953125	-768.1804809570311	212.6995391845703	1296.072998046875	-768.0152587890624	143.2034912109375	1370.640258789062	-669.3093872070311	158.3166656494141	1413.09619140625	-603.4053344726561	142.3165740966797	1365.164794921875	-607.0412597656249	153.8875732421875	1376.926025390625	-514.8269042968749	231.9835510253906	1353.6630859375	-502.0512084960937	105.0571517944336	1266.87939453125	-1212.864013671875	
